<svg width="32" height="32" viewBox="0 0 32 32" fill="none" xmlns="http://www.w3.org/2000/svg">
<path fill-rule="evenodd" clip-rule="evenodd" d="M11.0389 4.17412C12.3856 1.76322 14.2447 0.571442 16.0003 0.571442C17.728 0.571442 19.5956 1.68458 20.9585 4.09742C22.3129 6.49531 23.2471 10.2719 23.2471 16C23.2471 21.7282 22.3129 25.5047 20.9585 27.9026C19.5956 30.3154 17.728 31.4286 16.0003 31.4286C14.2447 31.4286 12.3856 30.2368 11.0389 27.8259C9.68964 25.4104 8.75354 21.6394 8.75354 16C8.75354 10.3606 9.68964 6.58966 11.0389 4.17412ZM13.5333 5.56742C12.5102 7.39905 11.6107 10.6281 11.6107 16C11.6107 21.372 12.5102 24.601 13.5333 26.4326C14.559 28.2689 15.6089 28.5714 16.0003 28.5714C16.4197 28.5714 17.4613 28.2846 18.4707 26.4974C19.4887 24.6953 20.39 21.4719 20.39 16C20.39 10.5282 19.4887 7.30472 18.4707 5.50261C17.4613 3.71545 16.4197 3.42858 16.0003 3.42858C15.6089 3.42858 14.559 3.73115 13.5333 5.56742Z" fill="url(#paint0_linear_5233_3952)"/>
<path fill-rule="evenodd" clip-rule="evenodd" d="M24.1131 5.49911C26.9335 5.41289 28.9471 6.40338 29.8366 7.95685C30.7097 9.48163 30.6292 11.6907 29.1558 14.118C27.6872 16.5376 24.773 19.3201 19.628 22.3153L18.9863 21.2131L19.628 22.3153C14.4839 25.31 10.6346 26.4654 7.81678 26.5382C4.98599 26.6114 3.03907 25.5721 2.16363 24.0432L2.16362 24.0432C1.27677 22.4943 1.43178 20.2517 2.91153 17.8393C4.39883 15.4145 7.30753 12.6333 12.3723 9.68477L13.0911 10.9194L12.3723 9.68477C17.4363 6.73671 21.2816 5.58566 24.1131 5.49911ZM24.2004 8.35492C22.0242 8.42144 18.6534 9.33416 13.8098 12.154L13.8098 12.154C8.96691 14.9733 6.49501 17.4616 5.347 19.3332C4.19146 21.2171 4.45642 22.2975 4.64308 22.6235C4.84117 22.9695 5.6085 23.7372 7.74293 23.682C9.89028 23.6265 13.2573 22.7181 18.1905 19.8461C23.1229 16.9747 25.5892 14.4876 26.7134 12.6355C27.8329 10.7913 27.5576 9.72665 27.3571 9.37657C27.1731 9.05517 26.3876 8.28806 24.2004 8.35492Z" fill="url(#paint1_linear_5233_3952)"/>
<path fill-rule="evenodd" clip-rule="evenodd" d="M7.88704 5.49911C10.7185 5.58566 14.5639 6.73671 19.6278 9.68478C24.6926 12.6333 27.6013 15.4145 29.0886 17.8393C30.5683 20.2517 30.7233 22.4944 29.8365 24.0432C28.961 25.5721 27.0141 26.6114 24.1834 26.5382C21.3655 26.4653 17.5163 25.31 12.3722 22.3153C7.22719 19.3201 4.31297 16.5376 2.84429 14.1181C1.37087 11.6907 1.29046 9.48164 2.16351 7.95687L2.16352 7.95685C3.05303 6.40338 5.06659 5.41289 7.88704 5.49911ZM4.64297 9.37657C4.44252 9.72668 4.16726 10.7913 5.28669 12.6355C6.41089 14.4876 8.87726 16.9747 13.8097 19.8461C18.7429 22.7181 22.1099 23.6265 24.2572 23.682C26.3916 23.7372 27.1589 22.9695 27.357 22.6235C27.5437 22.2975 27.8087 21.2171 26.6531 19.3332C25.5051 17.4616 23.0332 14.9733 18.1903 12.154L18.1903 12.154C13.3467 9.33416 9.97588 8.42144 7.79974 8.35492C5.61259 8.28806 4.82703 9.05515 4.64298 9.37655" fill="url(#paint2_linear_5233_3952)"/>
<defs>
<linearGradient id="paint0_linear_5233_3952" x1="14.8572" y1="1.14287" x2="20.5474" y2="30.7748" gradientUnits="userSpaceOnUse">
<stop stop-color="#6840FE"/>
<stop offset="1" stop-color="#40C3FB" stop-opacity="0.65"/>
</linearGradient>
<linearGradient id="paint1_linear_5233_3952" x1="15.7507" y1="25.5487" x2="14.8806" y2="5.69914" gradientUnits="userSpaceOnUse">
<stop stop-color="#6840FE"/>
<stop offset="1" stop-color="#40C3FB" stop-opacity="0.7"/>
</linearGradient>
<linearGradient id="paint2_linear_5233_3952" x1="15.7337" y1="25.5487" x2="14.8637" y2="5.69914" gradientUnits="userSpaceOnUse">
<stop stop-color="#6840FE" stop-opacity="0.63"/>
<stop offset="1" stop-color="#40C3FB"/>
</linearGradient>
</defs>
</svg>
